<?xml version="1.0" encoding="UTF-8" standalone="no"?>
<!DOCTYPE svg PUBLIC "-//W3C//DTD SVG 1.1//EN"
 "http://www.w3.org/Graphics/SVG/1.1/DTD/svg11.dtd">
<!-- Generated by graphviz version 2.43.0 (0)
 -->
<!-- Title: ERD_CARDS Pages: 1 -->
<svg width="1926pt" height="678pt"
 viewBox="0.00 0.00 1926.00 678.11" xmlns="http://www.w3.org/2000/svg" xmlns:xlink="http://www.w3.org/1999/xlink">
<g id="graph0" class="graph" transform="scale(1 1) rotate(0) translate(4 674.11)">
<title>ERD_CARDS</title>
<polygon fill="white" stroke="transparent" points="-4,4 -4,-674.11 1922,-674.11 1922,4 -4,4"/>
<g id="clust1" class="cluster">
<title>cluster_Authority</title>
<polygon fill="none" stroke="black" points="8,-21.11 8,-662.11 1910,-662.11 1910,-21.11 8,-21.11"/>
<text text-anchor="middle" x="959" y="-650.11" font-family="Helvetica,sans-Serif" font-size="10.00">Authority</text>
</g>
<!-- AuthorityPinpoint -->
<g id="node1" class="node">
<title>AuthorityPinpoint</title>
<polygon fill="none" stroke="black" points="557,-77.61 557,-292.61 804,-292.61 804,-77.61 557,-77.61"/>
<text text-anchor="middle" x="600" y="-183.21" font-family="Helvetica,sans-Serif" font-size="8.00">AuthorityPinpoint</text>
<polyline fill="none" stroke="black" points="643,-77.61 643,-292.61 "/>
<text text-anchor="start" x="651" y="-282.21" font-family="Helvetica,sans-Serif" font-size="8.00">PK: authoritypinpoint_id</text>
<text text-anchor="start" x="651" y="-273.21" font-family="Helvetica,sans-Serif" font-size="8.00">authoritypinpoint_id: ulid</text>
<text text-anchor="start" x="651" y="-264.21" font-family="Helvetica,sans-Serif" font-size="8.00">pin_id: ulid</text>
<text text-anchor="start" x="651" y="-255.21" font-family="Helvetica,sans-Serif" font-size="8.00">pin_created_utc: datetime_rfc3339</text>
<text text-anchor="start" x="651" y="-246.21" font-family="Helvetica,sans-Serif" font-size="8.00">pin_updated_utc: datetime_rfc3339</text>
<text text-anchor="start" x="651" y="-237.21" font-family="Helvetica,sans-Serif" font-size="8.00">pin_created_by_agent_id: ulid</text>
<text text-anchor="start" x="651" y="-228.21" font-family="Helvetica,sans-Serif" font-size="8.00">pin_updated_by_agent_id: ulid</text>
<text text-anchor="start" x="651" y="-219.21" font-family="Helvetica,sans-Serif" font-size="8.00">pin_status: enum</text>
<text text-anchor="start" x="651" y="-210.21" font-family="Helvetica,sans-Serif" font-size="8.00">pin_tags_json: json</text>
<text text-anchor="start" x="651" y="-201.21" font-family="Helvetica,sans-Serif" font-size="8.00">pin_notes: text</text>
<text text-anchor="start" x="651" y="-192.21" font-family="Helvetica,sans-Serif" font-size="8.00">pin_integrity_key: text</text>
<text text-anchor="start" x="651" y="-183.21" font-family="Helvetica,sans-Serif" font-size="8.00">pin_source_ref: text</text>
<text text-anchor="start" x="651" y="-174.21" font-family="Helvetica,sans-Serif" font-size="8.00">workspace_id: ulid</text>
<text text-anchor="start" x="651" y="-165.21" font-family="Helvetica,sans-Serif" font-size="8.00">authority_source_id: ulid</text>
<text text-anchor="start" x="651" y="-156.21" font-family="Helvetica,sans-Serif" font-size="8.00">pin_type: enum</text>
<text text-anchor="start" x="651" y="-147.21" font-family="Helvetica,sans-Serif" font-size="8.00">pin_label: text</text>
<text text-anchor="start" x="651" y="-138.21" font-family="Helvetica,sans-Serif" font-size="8.00">pin_path: text</text>
<text text-anchor="start" x="651" y="-129.21" font-family="Helvetica,sans-Serif" font-size="8.00">page: int</text>
<text text-anchor="start" x="651" y="-120.21" font-family="Helvetica,sans-Serif" font-size="8.00">line_start: int</text>
<text text-anchor="start" x="651" y="-111.21" font-family="Helvetica,sans-Serif" font-size="8.00">line_end: int</text>
<text text-anchor="start" x="651" y="-102.21" font-family="Helvetica,sans-Serif" font-size="8.00">excerpt_verified: bool</text>
<text text-anchor="start" x="651" y="-93.21" font-family="Helvetica,sans-Serif" font-size="8.00">excerpt_text: text</text>
<text text-anchor="start" x="651" y="-84.21" font-family="Helvetica,sans-Serif" font-size="8.00">verification_artifact_id: ulid</text>
</g>
<!-- AuthorityPinpoint&#45;&gt;AuthorityPinpoint -->
<g id="edge7" class="edge">
<title>AuthorityPinpoint&#45;&gt;AuthorityPinpoint</title>
<path fill="none" stroke="black" d="M656.89,-292.65C661.5,-303.9 669.37,-311.11 680.5,-311.11 688.33,-311.11 694.54,-307.54 699.15,-301.52"/>
<polygon fill="black" stroke="black" points="702.28,-303.08 704.11,-292.65 696.17,-299.66 702.28,-303.08"/>
<text text-anchor="middle" x="680.5" y="-313.51" font-family="Helvetica,sans-Serif" font-size="7.00">FK_AuthorityPinpoint_pin_id_TO_AuthorityPinpoint (N:1)</text>
</g>
<!-- AuthorityPinpoint&#45;&gt;AuthorityPinpoint -->
<g id="edge8" class="edge">
<title>AuthorityPinpoint&#45;&gt;AuthorityPinpoint</title>
<path fill="none" stroke="black" d="M625.94,-292.81C632.18,-314.02 650.37,-329.11 680.5,-329.11 705.92,-329.11 722.84,-318.37 731.26,-302.27"/>
<polygon fill="black" stroke="black" points="734.58,-303.39 735.06,-292.81 728.08,-300.79 734.58,-303.39"/>
<text text-anchor="middle" x="680.5" y="-331.51" font-family="Helvetica,sans-Serif" font-size="7.00">HAS_AuthorityPinpoint_BY_pin_id (1:N)</text>
</g>
<!-- AuthoritySource -->
<g id="node3" class="node">
<title>AuthoritySource</title>
<polygon fill="none" stroke="black" points="1137,-69.61 1137,-266.61 1398,-266.61 1398,-69.61 1137,-69.61"/>
<text text-anchor="middle" x="1178" y="-166.21" font-family="Helvetica,sans-Serif" font-size="8.00">AuthoritySource</text>
<polyline fill="none" stroke="black" points="1219,-69.61 1219,-266.61 "/>
<text text-anchor="start" x="1227" y="-256.21" font-family="Helvetica,sans-Serif" font-size="8.00">PK: authoritysource_id</text>
<text text-anchor="start" x="1227" y="-247.21" font-family="Helvetica,sans-Serif" font-size="8.00">authoritysource_id: ulid</text>
<text text-anchor="start" x="1227" y="-238.21" font-family="Helvetica,sans-Serif" font-size="8.00">authsrc_id: ulid</text>
<text text-anchor="start" x="1227" y="-229.21" font-family="Helvetica,sans-Serif" font-size="8.00">authsrc_created_utc: datetime_rfc3339</text>
<text text-anchor="start" x="1227" y="-220.21" font-family="Helvetica,sans-Serif" font-size="8.00">authsrc_updated_utc: datetime_rfc3339</text>
<text text-anchor="start" x="1227" y="-211.21" font-family="Helvetica,sans-Serif" font-size="8.00">authsrc_created_by_agent_id: ulid</text>
<text text-anchor="start" x="1227" y="-202.21" font-family="Helvetica,sans-Serif" font-size="8.00">authsrc_updated_by_agent_id: ulid</text>
<text text-anchor="start" x="1227" y="-193.21" font-family="Helvetica,sans-Serif" font-size="8.00">authsrc_status: enum</text>
<text text-anchor="start" x="1227" y="-184.21" font-family="Helvetica,sans-Serif" font-size="8.00">authsrc_tags_json: json</text>
<text text-anchor="start" x="1227" y="-175.21" font-family="Helvetica,sans-Serif" font-size="8.00">authsrc_notes: text</text>
<text text-anchor="start" x="1227" y="-166.21" font-family="Helvetica,sans-Serif" font-size="8.00">authsrc_integrity_key: text</text>
<text text-anchor="start" x="1227" y="-157.21" font-family="Helvetica,sans-Serif" font-size="8.00">authsrc_source_ref: text</text>
<text text-anchor="start" x="1227" y="-148.21" font-family="Helvetica,sans-Serif" font-size="8.00">workspace_id: ulid</text>
<text text-anchor="start" x="1227" y="-139.21" font-family="Helvetica,sans-Serif" font-size="8.00">authority_kind: enum</text>
<text text-anchor="start" x="1227" y="-130.21" font-family="Helvetica,sans-Serif" font-size="8.00">title: text</text>
<text text-anchor="start" x="1227" y="-121.21" font-family="Helvetica,sans-Serif" font-size="8.00">publisher: text</text>
<text text-anchor="start" x="1227" y="-112.21" font-family="Helvetica,sans-Serif" font-size="8.00">effective_date: date</text>
<text text-anchor="start" x="1227" y="-103.21" font-family="Helvetica,sans-Serif" font-size="8.00">version_label: text</text>
<text text-anchor="start" x="1227" y="-94.21" font-family="Helvetica,sans-Serif" font-size="8.00">source_artifact_id: ulid</text>
<text text-anchor="start" x="1227" y="-85.21" font-family="Helvetica,sans-Serif" font-size="8.00">extracted_text_artifact_id: ulid</text>
<text text-anchor="start" x="1227" y="-76.21" font-family="Helvetica,sans-Serif" font-size="8.00">citation_style: text</text>
</g>
<!-- AuthorityPinpoint&#45;&gt;AuthoritySource -->
<g id="edge1" class="edge">
<title>AuthorityPinpoint&#45;&gt;AuthoritySource</title>
<path fill="none" stroke="black" d="M804.22,-145.73C826.55,-140.07 849.81,-135.14 872,-132.11 980.77,-117.26 1010.01,-119 1119,-132.11 1121.58,-132.42 1124.17,-132.76 1126.78,-133.12"/>
<polygon fill="black" stroke="black" points="1126.5,-136.62 1136.91,-134.66 1127.55,-129.7 1126.5,-136.62"/>
<text text-anchor="middle" x="995.5" y="-134.51" font-family="Helvetica,sans-Serif" font-size="7.00">PINPOINT_IN_SOURCE (N:1)</text>
</g>
<!-- AuthorityPinpoint&#45;&gt;AuthoritySource -->
<g id="edge9" class="edge">
<title>AuthorityPinpoint&#45;&gt;AuthoritySource</title>
<path fill="none" stroke="black" d="M804.04,-168.86C826.6,-166.46 849.98,-164.38 872,-163.11 981.6,-156.8 1009.24,-161.25 1119,-163.11 1121.43,-163.15 1123.89,-163.2 1126.36,-163.24"/>
<polygon fill="black" stroke="black" points="1126.53,-166.75 1136.6,-163.46 1126.68,-159.75 1126.53,-166.75"/>
<text text-anchor="middle" x="995.5" y="-165.51" font-family="Helvetica,sans-Serif" font-size="7.00">FK_AuthorityPinpoint_authority_source_id_TO_AuthoritySource (N:1)</text>
</g>
<!-- AuthorityPinpoint&#45;&gt;AuthoritySource -->
<g id="edge23" class="edge">
<title>AuthorityPinpoint&#45;&gt;AuthoritySource</title>
<path fill="none" stroke="black" d="M804.14,-181.55C898.39,-178.81 1028.67,-175.02 1126.92,-172.17"/>
<polygon fill="black" stroke="black" points="1127.03,-175.66 1136.93,-171.87 1126.83,-168.67 1127.03,-175.66"/>
<text text-anchor="middle" x="995.5" y="-181.51" font-family="Helvetica,sans-Serif" font-size="7.00">ASSOC_AuthorityPinpoint_AuthorityPinpoint_AuthoritySource (M:N)</text>
</g>
<!-- AuthoritySnapshot -->
<g id="node2" class="node">
<title>AuthoritySnapshot</title>
<polygon fill="none" stroke="black" points="1641,-253.11 1641,-423.11 1902,-423.11 1902,-253.11 1641,-253.11"/>
<text text-anchor="middle" x="1687" y="-336.21" font-family="Helvetica,sans-Serif" font-size="8.00">AuthoritySnapshot</text>
<polyline fill="none" stroke="black" points="1733,-253.11 1733,-423.11 "/>
<text text-anchor="start" x="1741" y="-412.71" font-family="Helvetica,sans-Serif" font-size="8.00">PK: authoritysnapshot_id</text>
<text text-anchor="start" x="1741" y="-403.71" font-family="Helvetica,sans-Serif" font-size="8.00">authoritysnapshot_id: ulid</text>
<text text-anchor="start" x="1741" y="-394.71" font-family="Helvetica,sans-Serif" font-size="8.00">snap_id: ulid</text>
<text text-anchor="start" x="1741" y="-385.71" font-family="Helvetica,sans-Serif" font-size="8.00">snap_created_utc: datetime_rfc3339</text>
<text text-anchor="start" x="1741" y="-376.71" font-family="Helvetica,sans-Serif" font-size="8.00">snap_updated_utc: datetime_rfc3339</text>
<text text-anchor="start" x="1741" y="-367.71" font-family="Helvetica,sans-Serif" font-size="8.00">snap_created_by_agent_id: ulid</text>
<text text-anchor="start" x="1741" y="-358.71" font-family="Helvetica,sans-Serif" font-size="8.00">snap_updated_by_agent_id: ulid</text>
<text text-anchor="start" x="1741" y="-349.71" font-family="Helvetica,sans-Serif" font-size="8.00">snap_status: enum</text>
<text text-anchor="start" x="1741" y="-340.71" font-family="Helvetica,sans-Serif" font-size="8.00">snap_tags_json: json</text>
<text text-anchor="start" x="1741" y="-331.71" font-family="Helvetica,sans-Serif" font-size="8.00">snap_notes: text</text>
<text text-anchor="start" x="1741" y="-322.71" font-family="Helvetica,sans-Serif" font-size="8.00">snap_integrity_key: text</text>
<text text-anchor="start" x="1741" y="-313.71" font-family="Helvetica,sans-Serif" font-size="8.00">snap_source_ref: text</text>
<text text-anchor="start" x="1741" y="-304.71" font-family="Helvetica,sans-Serif" font-size="8.00">workspace_id: ulid</text>
<text text-anchor="start" x="1741" y="-295.71" font-family="Helvetica,sans-Serif" font-size="8.00">snapshot_label: text</text>
<text text-anchor="start" x="1741" y="-286.71" font-family="Helvetica,sans-Serif" font-size="8.00">created_for_run_id: ulid</text>
<text text-anchor="start" x="1741" y="-277.71" font-family="Helvetica,sans-Serif" font-size="8.00">coverage_json: json</text>
<text text-anchor="start" x="1741" y="-268.71" font-family="Helvetica,sans-Serif" font-size="8.00">index_artifact_id: ulid</text>
<text text-anchor="start" x="1741" y="-259.71" font-family="Helvetica,sans-Serif" font-size="8.00">is_locked: bool</text>
</g>
<!-- AuthoritySnapshot&#45;&gt;AuthoritySnapshot -->
<g id="edge15" class="edge">
<title>AuthoritySnapshot&#45;&gt;AuthoritySnapshot</title>
<path fill="none" stroke="black" d="M1750.79,-423.38C1754.39,-434.36 1761.29,-441.61 1771.5,-441.61 1778.52,-441.61 1783.98,-438.18 1787.87,-432.47"/>
<polygon fill="black" stroke="black" points="1791.06,-433.91 1792.21,-423.38 1784.74,-430.9 1791.06,-433.91"/>
<text text-anchor="middle" x="1771.5" y="-444.01" font-family="Helvetica,sans-Serif" font-size="7.00">FK_AuthoritySnapshot_snap_id_TO_AuthoritySnapshot (N:1)</text>
</g>
<!-- AuthoritySnapshot&#45;&gt;AuthoritySnapshot -->
<g id="edge16" class="edge">
<title>AuthoritySnapshot&#45;&gt;AuthoritySnapshot</title>
<path fill="none" stroke="black" d="M1724.99,-423.27C1728.43,-444.11 1743.94,-459.61 1771.5,-459.61 1794.54,-459.61 1809.15,-448.78 1815.34,-433.05"/>
<polygon fill="black" stroke="black" points="1818.75,-433.84 1818.01,-423.27 1812,-432 1818.75,-433.84"/>
<text text-anchor="middle" x="1771.5" y="-462.01" font-family="Helvetica,sans-Serif" font-size="7.00">HAS_AuthoritySnapshot_BY_snap_id (1:N)</text>
</g>
<!-- Proposition -->
<g id="node4" class="node">
<title>Proposition</title>
<polygon fill="none" stroke="black" points="16,-294.61 16,-473.61 245,-473.61 245,-294.61 16,-294.61"/>
<text text-anchor="middle" x="47" y="-382.21" font-family="Helvetica,sans-Serif" font-size="8.00">Proposition</text>
<polyline fill="none" stroke="black" points="78,-294.61 78,-473.61 "/>
<text text-anchor="start" x="86" y="-463.21" font-family="Helvetica,sans-Serif" font-size="8.00">PK: proposition_id</text>
<text text-anchor="start" x="86" y="-454.21" font-family="Helvetica,sans-Serif" font-size="8.00">proposition_id: ulid</text>
<text text-anchor="start" x="86" y="-445.21" font-family="Helvetica,sans-Serif" font-size="8.00">prop_id: ulid</text>
<text text-anchor="start" x="86" y="-436.21" font-family="Helvetica,sans-Serif" font-size="8.00">prop_created_utc: datetime_rfc3339</text>
<text text-anchor="start" x="86" y="-427.21" font-family="Helvetica,sans-Serif" font-size="8.00">prop_updated_utc: datetime_rfc3339</text>
<text text-anchor="start" x="86" y="-418.21" font-family="Helvetica,sans-Serif" font-size="8.00">prop_created_by_agent_id: ulid</text>
<text text-anchor="start" x="86" y="-409.21" font-family="Helvetica,sans-Serif" font-size="8.00">prop_updated_by_agent_id: ulid</text>
<text text-anchor="start" x="86" y="-400.21" font-family="Helvetica,sans-Serif" font-size="8.00">prop_status: enum</text>
<text text-anchor="start" x="86" y="-391.21" font-family="Helvetica,sans-Serif" font-size="8.00">prop_tags_json: json</text>
<text text-anchor="start" x="86" y="-382.21" font-family="Helvetica,sans-Serif" font-size="8.00">prop_notes: text</text>
<text text-anchor="start" x="86" y="-373.21" font-family="Helvetica,sans-Serif" font-size="8.00">prop_integrity_key: text</text>
<text text-anchor="start" x="86" y="-364.21" font-family="Helvetica,sans-Serif" font-size="8.00">prop_source_ref: text</text>
<text text-anchor="start" x="86" y="-355.21" font-family="Helvetica,sans-Serif" font-size="8.00">workspace_id: ulid</text>
<text text-anchor="start" x="86" y="-346.21" font-family="Helvetica,sans-Serif" font-size="8.00">case_id: ulid</text>
<text text-anchor="start" x="86" y="-337.21" font-family="Helvetica,sans-Serif" font-size="8.00">proposition_text: text</text>
<text text-anchor="start" x="86" y="-328.21" font-family="Helvetica,sans-Serif" font-size="8.00">domain: enum</text>
<text text-anchor="start" x="86" y="-319.21" font-family="Helvetica,sans-Serif" font-size="8.00">authority_snapshot_id: ulid</text>
<text text-anchor="start" x="86" y="-310.21" font-family="Helvetica,sans-Serif" font-size="8.00">confidence: float</text>
<text text-anchor="start" x="86" y="-301.21" font-family="Helvetica,sans-Serif" font-size="8.00">status_gate: enum</text>
</g>
<!-- AuthoritySnapshot&#45;&gt;Proposition -->
<g id="edge14" class="edge">
<title>AuthoritySnapshot&#45;&gt;Proposition</title>
<path fill="none" stroke="black" d="M1689.48,-252.87C1619.58,-185.96 1512.11,-98 1398,-60.11 1374.51,-52.31 530.43,-60.13 507,-68.11 386.52,-109.12 278.8,-209.85 209.96,-286.66"/>
<polygon fill="black" stroke="black" points="207.03,-284.68 203.01,-294.48 212.27,-289.33 207.03,-284.68"/>
<text text-anchor="middle" x="995.5" y="-61.51" font-family="Helvetica,sans-Serif" font-size="7.00">HAS_Proposition_BY_authority_snapshot_id (1:N)</text>
</g>
<!-- AuthoritySource&#45;&gt;AuthorityPinpoint -->
<g id="edge10" class="edge">
<title>AuthoritySource&#45;&gt;AuthorityPinpoint</title>
<path fill="none" stroke="black" d="M1136.86,-198.77C1130.84,-199.67 1124.87,-200.46 1119,-201.11 1017.26,-212.35 901.5,-207.34 814.61,-200.06"/>
<polygon fill="black" stroke="black" points="814.69,-196.55 804.43,-199.19 814.1,-203.53 814.69,-196.55"/>
<text text-anchor="middle" x="995.5" y="-209.51" font-family="Helvetica,sans-Serif" font-size="7.00">HAS_AuthorityPinpoint_BY_authority_source_id (1:N)</text>
</g>
<!-- AuthoritySource&#45;&gt;AuthoritySource -->
<g id="edge5" class="edge">
<title>AuthoritySource&#45;&gt;AuthoritySource</title>
<path fill="none" stroke="black" d="M1247.48,-266.7C1251.23,-277.87 1257.9,-285.11 1267.5,-285.11 1274.1,-285.11 1279.31,-281.69 1283.15,-275.92"/>
<polygon fill="black" stroke="black" points="1286.4,-277.23 1287.52,-266.7 1280.07,-274.23 1286.4,-277.23"/>
<text text-anchor="middle" x="1267.5" y="-287.51" font-family="Helvetica,sans-Serif" font-size="7.00">FK_AuthoritySource_authsrc_id_TO_AuthoritySource (N:1)</text>
</g>
<!-- AuthoritySource&#45;&gt;AuthoritySource -->
<g id="edge6" class="edge">
<title>AuthoritySource&#45;&gt;AuthoritySource</title>
<path fill="none" stroke="black" d="M1221.71,-266.7C1226.27,-287.82 1241.54,-303.11 1267.5,-303.11 1289.2,-303.11 1303.43,-292.43 1310.18,-276.59"/>
<polygon fill="black" stroke="black" points="1313.63,-277.29 1313.29,-266.7 1306.95,-275.19 1313.63,-277.29"/>
<text text-anchor="middle" x="1267.5" y="-305.51" font-family="Helvetica,sans-Serif" font-size="7.00">HAS_AuthoritySource_BY_authsrc_id (1:N)</text>
</g>
<!-- Proposition&#45;&gt;AuthorityPinpoint -->
<g id="edge26" class="edge">
<title>Proposition&#45;&gt;AuthorityPinpoint</title>
<path fill="none" stroke="black" d="M245.05,-342.88C332.94,-310.96 454.85,-266.69 547.17,-233.16"/>
<polygon fill="black" stroke="black" points="548.37,-236.45 556.57,-229.75 545.98,-229.87 548.37,-236.45"/>
<text text-anchor="middle" x="376" y="-337.51" font-family="Helvetica,sans-Serif" font-size="7.00">ASSOC_PropositionPinLink_Proposition_AuthorityPinpoint (M:N)</text>
</g>
<!-- Proposition&#45;&gt;AuthoritySnapshot -->
<g id="edge2" class="edge">
<title>Proposition&#45;&gt;AuthoritySnapshot</title>
<path fill="none" stroke="black" d="M245.37,-379.62C447.05,-371.63 846.66,-355.65 854,-354.11 862.4,-352.35 863.57,-348.73 872,-347.11 944.12,-333.21 1396.37,-334.89 1630.45,-336.75"/>
<polygon fill="black" stroke="black" points="1630.71,-340.25 1640.74,-336.83 1630.77,-333.25 1630.71,-340.25"/>
<text text-anchor="middle" x="995.5" y="-349.51" font-family="Helvetica,sans-Serif" font-size="7.00">PROP_IN_SNAPSHOT (N:1)</text>
</g>
<!-- Proposition&#45;&gt;AuthoritySnapshot -->
<g id="edge13" class="edge">
<title>Proposition&#45;&gt;AuthoritySnapshot</title>
<path fill="none" stroke="black" d="M245.02,-383.04C315.3,-382.25 407.4,-380.99 489,-379.11 904.26,-369.56 1395.02,-352.15 1630.58,-343.41"/>
<polygon fill="black" stroke="black" points="1631.05,-346.9 1640.92,-343.03 1630.79,-339.9 1631.05,-346.9"/>
<text text-anchor="middle" x="995.5" y="-370.51" font-family="Helvetica,sans-Serif" font-size="7.00">FK_Proposition_authority_snapshot_id_TO_AuthoritySnapshot (N:1)</text>
</g>
<!-- Proposition&#45;&gt;AuthoritySnapshot -->
<g id="edge24" class="edge">
<title>Proposition&#45;&gt;AuthoritySnapshot</title>
<path fill="none" stroke="black" d="M143.24,-294.61C157.93,-221.6 190.66,-122.45 263,-71.11 351.6,-8.23 398.44,-60.49 507,-56.11 754.8,-46.12 1413.07,68.93 1623,-63.11 1686.8,-103.23 1724.81,-180.95 1746.23,-243.56"/>
<polygon fill="black" stroke="black" points="1742.92,-244.69 1749.4,-253.08 1749.56,-242.48 1742.92,-244.69"/>
<text text-anchor="middle" x="995.5" y="-25.51" font-family="Helvetica,sans-Serif" font-size="7.00">ASSOC_Proposition_Proposition_AuthoritySnapshot (M:N)</text>
</g>
<!-- Proposition&#45;&gt;Proposition -->
<g id="edge11" class="edge">
<title>Proposition&#45;&gt;Proposition</title>
<path fill="none" stroke="black" d="M110.71,-473.91C114.25,-484.9 120.85,-492.11 130.5,-492.11 137.13,-492.11 142.33,-488.7 146.07,-483"/>
<polygon fill="black" stroke="black" points="149.26,-484.45 150.29,-473.91 142.91,-481.51 149.26,-484.45"/>
<text text-anchor="middle" x="130.5" y="-494.51" font-family="Helvetica,sans-Serif" font-size="7.00">FK_Proposition_prop_id_TO_Proposition (N:1)</text>
</g>
<!-- Proposition&#45;&gt;Proposition -->
<g id="edge12" class="edge">
<title>Proposition&#45;&gt;Proposition</title>
<path fill="none" stroke="black" d="M85.71,-473.86C89.48,-494.74 104.41,-510.11 130.5,-510.11 152.31,-510.11 166.32,-499.37 172.54,-483.65"/>
<polygon fill="black" stroke="black" points="175.95,-484.44 175.29,-473.86 169.21,-482.54 175.95,-484.44"/>
<text text-anchor="middle" x="130.5" y="-512.51" font-family="Helvetica,sans-Serif" font-size="7.00">HAS_Proposition_BY_prop_id (1:N)</text>
</g>
<!-- VehiclePropositionLink -->
<g id="node6" class="node">
<title>VehiclePropositionLink</title>
<polygon fill="none" stroke="black" points="507,-448.11 507,-582.11 854,-582.11 854,-448.11 507,-448.11"/>
<text text-anchor="middle" x="561" y="-513.21" font-family="Helvetica,sans-Serif" font-size="8.00">VehiclePropositionLink</text>
<polyline fill="none" stroke="black" points="615,-448.11 615,-582.11 "/>
<text text-anchor="start" x="623" y="-571.71" font-family="Helvetica,sans-Serif" font-size="8.00">PK: vehiclepropositionlink_id</text>
<text text-anchor="start" x="623" y="-562.71" font-family="Helvetica,sans-Serif" font-size="8.00">vehiclepropositionlink_id: ulid</text>
<text text-anchor="start" x="623" y="-553.71" font-family="Helvetica,sans-Serif" font-size="8.00">vehiclepropositionlink_created_utc: datetime_rfc3339</text>
<text text-anchor="start" x="623" y="-544.71" font-family="Helvetica,sans-Serif" font-size="8.00">vehiclepropositionlink_updated_utc: datetime_rfc3339</text>
<text text-anchor="start" x="623" y="-535.71" font-family="Helvetica,sans-Serif" font-size="8.00">vehiclepropositionlink_created_by_agent_id: ulid</text>
<text text-anchor="start" x="623" y="-526.71" font-family="Helvetica,sans-Serif" font-size="8.00">vehiclepropositionlink_updated_by_agent_id: ulid</text>
<text text-anchor="start" x="623" y="-517.71" font-family="Helvetica,sans-Serif" font-size="8.00">vehiclepropositionlink_status: enum</text>
<text text-anchor="start" x="623" y="-508.71" font-family="Helvetica,sans-Serif" font-size="8.00">vehiclepropositionlink_tags_json: json</text>
<text text-anchor="start" x="623" y="-499.71" font-family="Helvetica,sans-Serif" font-size="8.00">vehiclepropositionlink_notes: text</text>
<text text-anchor="start" x="623" y="-490.71" font-family="Helvetica,sans-Serif" font-size="8.00">vehiclepropositionlink_integrity_key: text</text>
<text text-anchor="start" x="623" y="-481.71" font-family="Helvetica,sans-Serif" font-size="8.00">vehiclepropositionlink_source_ref: text</text>
<text text-anchor="start" x="623" y="-472.71" font-family="Helvetica,sans-Serif" font-size="8.00">vehicle_id: ulid</text>
<text text-anchor="start" x="623" y="-463.71" font-family="Helvetica,sans-Serif" font-size="8.00">prop_id: ulid</text>
<text text-anchor="start" x="623" y="-454.71" font-family="Helvetica,sans-Serif" font-size="8.00">use_type: enum</text>
</g>
<!-- Proposition&#45;&gt;VehiclePropositionLink -->
<g id="edge22" class="edge">
<title>Proposition&#45;&gt;VehiclePropositionLink</title>
<path fill="none" stroke="black" d="M245.17,-421.94C251.17,-423.46 257.14,-424.86 263,-426.11 361.84,-447.14 390.32,-429.34 489,-451.11 491.66,-451.7 494.34,-452.31 497.03,-452.94"/>
<polygon fill="black" stroke="black" points="496.27,-456.36 506.81,-455.33 497.93,-449.56 496.27,-456.36"/>
<text text-anchor="middle" x="376" y="-453.51" font-family="Helvetica,sans-Serif" font-size="7.00">HAS_VehiclePropositionLink_BY_prop_id (1:N)</text>
</g>
<!-- Vehicle -->
<g id="node5" class="node">
<title>Vehicle</title>
<polygon fill="none" stroke="black" points="1162.5,-377.61 1162.5,-556.61 1372.5,-556.61 1372.5,-377.61 1162.5,-377.61"/>
<text text-anchor="middle" x="1185.5" y="-465.21" font-family="Helvetica,sans-Serif" font-size="8.00">Vehicle</text>
<polyline fill="none" stroke="black" points="1208.5,-377.61 1208.5,-556.61 "/>
<text text-anchor="start" x="1216.5" y="-546.21" font-family="Helvetica,sans-Serif" font-size="8.00">PK: vehicle_id</text>
<text text-anchor="start" x="1216.5" y="-537.21" font-family="Helvetica,sans-Serif" font-size="8.00">vehicle_id: ulid</text>
<text text-anchor="start" x="1216.5" y="-528.21" font-family="Helvetica,sans-Serif" font-size="8.00">veh_id: ulid</text>
<text text-anchor="start" x="1216.5" y="-519.21" font-family="Helvetica,sans-Serif" font-size="8.00">veh_created_utc: datetime_rfc3339</text>
<text text-anchor="start" x="1216.5" y="-510.21" font-family="Helvetica,sans-Serif" font-size="8.00">veh_updated_utc: datetime_rfc3339</text>
<text text-anchor="start" x="1216.5" y="-501.21" font-family="Helvetica,sans-Serif" font-size="8.00">veh_created_by_agent_id: ulid</text>
<text text-anchor="start" x="1216.5" y="-492.21" font-family="Helvetica,sans-Serif" font-size="8.00">veh_updated_by_agent_id: ulid</text>
<text text-anchor="start" x="1216.5" y="-483.21" font-family="Helvetica,sans-Serif" font-size="8.00">veh_status: enum</text>
<text text-anchor="start" x="1216.5" y="-474.21" font-family="Helvetica,sans-Serif" font-size="8.00">veh_tags_json: json</text>
<text text-anchor="start" x="1216.5" y="-465.21" font-family="Helvetica,sans-Serif" font-size="8.00">veh_notes: text</text>
<text text-anchor="start" x="1216.5" y="-456.21" font-family="Helvetica,sans-Serif" font-size="8.00">veh_integrity_key: text</text>
<text text-anchor="start" x="1216.5" y="-447.21" font-family="Helvetica,sans-Serif" font-size="8.00">veh_source_ref: text</text>
<text text-anchor="start" x="1216.5" y="-438.21" font-family="Helvetica,sans-Serif" font-size="8.00">workspace_id: ulid</text>
<text text-anchor="start" x="1216.5" y="-429.21" font-family="Helvetica,sans-Serif" font-size="8.00">vehicle_name: text</text>
<text text-anchor="start" x="1216.5" y="-420.21" font-family="Helvetica,sans-Serif" font-size="8.00">vehicle_type: enum</text>
<text text-anchor="start" x="1216.5" y="-411.21" font-family="Helvetica,sans-Serif" font-size="8.00">scao_form_id: ulid</text>
<text text-anchor="start" x="1216.5" y="-402.21" font-family="Helvetica,sans-Serif" font-size="8.00">trigger_conditions_json: json</text>
<text text-anchor="start" x="1216.5" y="-393.21" font-family="Helvetica,sans-Serif" font-size="8.00">elements_grid_artifact_id: ulid</text>
<text text-anchor="start" x="1216.5" y="-384.21" font-family="Helvetica,sans-Serif" font-size="8.00">default_deadlines_json: json</text>
</g>
<!-- Vehicle&#45;&gt;AuthoritySnapshot -->
<g id="edge25" class="edge">
<title>Vehicle&#45;&gt;AuthoritySnapshot</title>
<path fill="none" stroke="black" d="M1372.51,-440.38C1447.3,-421.16 1548.97,-395.04 1630.83,-374"/>
<polygon fill="black" stroke="black" points="1631.89,-377.34 1640.71,-371.46 1630.15,-370.56 1631.89,-377.34"/>
<text text-anchor="middle" x="1519.5" y="-430.51" font-family="Helvetica,sans-Serif" font-size="7.00">ASSOC_ProofObligation_Vehicle_AuthoritySnapshot (M:N)</text>
</g>
<!-- Vehicle&#45;&gt;Proposition -->
<g id="edge27" class="edge">
<title>Vehicle&#45;&gt;Proposition</title>
<path fill="none" stroke="black" d="M1162.21,-454.52C1147.7,-452.94 1132.99,-451.42 1119,-450.11 808.85,-421.13 442.75,-400.1 255.48,-390.29"/>
<polygon fill="black" stroke="black" points="255.49,-386.78 245.33,-389.76 255.13,-393.77 255.49,-386.78"/>
<text text-anchor="middle" x="680.5" y="-429.51" font-family="Helvetica,sans-Serif" font-size="7.00">ASSOC_VehiclePropositionLink_Vehicle_Proposition (M:N)</text>
</g>
<!-- Vehicle&#45;&gt;Vehicle -->
<g id="edge17" class="edge">
<title>Vehicle&#45;&gt;Vehicle</title>
<path fill="none" stroke="black" d="M1253.87,-556.91C1256.31,-567.9 1260.86,-575.11 1267.5,-575.11 1271.86,-575.11 1275.32,-572 1277.87,-566.76"/>
<polygon fill="black" stroke="black" points="1281.31,-567.5 1281.13,-556.91 1274.66,-565.3 1281.31,-567.5"/>
<text text-anchor="middle" x="1267.5" y="-577.51" font-family="Helvetica,sans-Serif" font-size="7.00">FK_Vehicle_veh_id_TO_Vehicle (N:1)</text>
</g>
<!-- Vehicle&#45;&gt;Vehicle -->
<g id="edge18" class="edge">
<title>Vehicle&#45;&gt;Vehicle</title>
<path fill="none" stroke="black" d="M1236.66,-556.86C1239.25,-577.74 1249.54,-593.11 1267.5,-593.11 1282.38,-593.11 1291.98,-582.57 1296.32,-567.09"/>
<polygon fill="black" stroke="black" points="1299.84,-567.35 1298.34,-556.86 1292.97,-566 1299.84,-567.35"/>
<text text-anchor="middle" x="1267.5" y="-595.51" font-family="Helvetica,sans-Serif" font-size="7.00">HAS_Vehicle_BY_veh_id (1:N)</text>
</g>
<!-- Vehicle&#45;&gt;Vehicle -->
<g id="edge28" class="edge">
<title>Vehicle&#45;&gt;Vehicle</title>
<path fill="none" stroke="black" d="M1220.25,-556.76C1220.13,-586.92 1235.88,-611.11 1267.5,-611.11 1295.54,-611.11 1311.1,-592.09 1314.18,-566.75"/>
<polygon fill="black" stroke="black" points="1317.68,-566.94 1314.75,-556.76 1310.69,-566.54 1317.68,-566.94"/>
<text text-anchor="middle" x="1267.5" y="-613.51" font-family="Helvetica,sans-Serif" font-size="7.00">ASSOC_EXTRACTED_vehicle_row_Vehicle_Vehicle (M:N)</text>
</g>
<!-- Vehicle&#45;&gt;VehiclePropositionLink -->
<g id="edge20" class="edge">
<title>Vehicle&#45;&gt;VehiclePropositionLink</title>
<path fill="none" stroke="black" d="M1162.15,-472.58C1082.56,-477.1 970.26,-484.2 872,-493.11 869.43,-493.34 866.83,-493.58 864.22,-493.83"/>
<polygon fill="black" stroke="black" points="863.71,-490.36 854.09,-494.8 864.38,-497.33 863.71,-490.36"/>
<text text-anchor="middle" x="995.5" y="-495.51" font-family="Helvetica,sans-Serif" font-size="7.00">HAS_VehiclePropositionLink_BY_vehicle_id (1:N)</text>
</g>
<!-- VehiclePropositionLink&#45;&gt;Proposition -->
<g id="edge4" class="edge">
<title>VehiclePropositionLink&#45;&gt;Proposition</title>
<path fill="none" stroke="black" d="M506.94,-486.59C500.89,-485.73 494.89,-484.9 489,-484.11 388.89,-470.66 359.04,-491.4 263,-460.11 260.24,-459.21 257.47,-458.25 254.7,-457.23"/>
<polygon fill="black" stroke="black" points="255.89,-453.93 245.3,-453.56 253.34,-460.45 255.89,-453.93"/>
<text text-anchor="middle" x="376" y="-486.51" font-family="Helvetica,sans-Serif" font-size="7.00">VEHICLEPROPOSITIONLINK_PROPOSITION (N:1)</text>
</g>
<!-- VehiclePropositionLink&#45;&gt;Proposition -->
<g id="edge21" class="edge">
<title>VehiclePropositionLink&#45;&gt;Proposition</title>
<path fill="none" stroke="black" d="M506.96,-529.39C429.94,-529.82 339.51,-521.91 263,-492.11 253.81,-488.53 244.79,-484.05 236.03,-478.96"/>
<polygon fill="black" stroke="black" points="237.74,-475.9 227.38,-473.68 234.09,-481.88 237.74,-475.9"/>
<text text-anchor="middle" x="376" y="-531.51" font-family="Helvetica,sans-Serif" font-size="7.00">FK_VehiclePropositionLink_prop_id_TO_Proposition (N:1)</text>
</g>
<!-- VehiclePropositionLink&#45;&gt;Vehicle -->
<g id="edge3" class="edge">
<title>VehiclePropositionLink&#45;&gt;Vehicle</title>
<path fill="none" stroke="black" d="M854.21,-464.89C860.19,-463.84 866.13,-462.91 872,-462.11 980.77,-447.26 1009.24,-460.25 1119,-462.11 1129.69,-462.29 1140.81,-462.55 1151.95,-462.85"/>
<polygon fill="black" stroke="black" points="1152.06,-466.35 1162.16,-463.13 1152.26,-459.35 1152.06,-466.35"/>
<text text-anchor="middle" x="995.5" y="-464.51" font-family="Helvetica,sans-Serif" font-size="7.00">VEHICLEPROPOSITIONLINK_VEHICLE (N:1)</text>
</g>
<!-- VehiclePropositionLink&#45;&gt;Vehicle -->
<g id="edge19" class="edge">
<title>VehiclePropositionLink&#45;&gt;Vehicle</title>
<path fill="none" stroke="black" d="M854.04,-516.57C934.79,-515.37 1032.12,-511.22 1119,-500.11 1129.87,-498.72 1141.12,-496.9 1152.34,-494.84"/>
<polygon fill="black" stroke="black" points="1153.01,-498.28 1162.17,-492.97 1151.7,-491.4 1153.01,-498.28"/>
<text text-anchor="middle" x="995.5" y="-517.51" font-family="Helvetica,sans-Serif" font-size="7.00">FK_VehiclePropositionLink_vehicle_id_TO_Vehicle (N:1)</text>
</g>
</g>
</svg>
